<svg width="162" height="78" viewBox="0 0 162 78" fill="none" xmlns="http://www.w3.org/2000/svg">
<mask id="mask0_63_997" style="mask-type:luminance" maskUnits="userSpaceOnUse" x="0" y="0" width="156" height="78">
<path d="M156 0H0V78H156V0Z" fill="white"/>
</mask>
<g mask="url(#mask0_63_997)">
<path d="M123.193 37.6233H123.419C123.611 37.6233 123.787 37.6135 123.787 37.3892C123.787 37.2008 123.627 37.1715 123.48 37.1715H123.193V37.6233ZM122.975 36.9928H123.515C123.848 36.9928 124.005 37.1263 124.005 37.3991C124.005 37.6558 123.844 37.7632 123.637 37.7863L124.035 38.4132H123.803L123.423 37.8025H123.193V38.4132H122.975V36.9928ZM123.442 38.7415C123.995 38.7415 124.423 38.293 124.423 37.6985C124.423 37.1165 123.995 36.6676 123.442 36.6676C122.882 36.6676 122.456 37.1165 122.456 37.6985C122.456 38.293 122.882 38.7415 123.442 38.7415ZM123.442 36.4888C124.093 36.4888 124.64 37.0124 124.64 37.6985C124.64 38.3971 124.093 38.9206 123.442 38.9206C122.786 38.9206 122.238 38.3971 122.238 37.6985C122.238 37.0124 122.786 36.4888 123.442 36.4888Z" fill="white"/>
<path d="M31.5833 52.9062H120.479V36.6384H31.5833V52.9062Z" fill="white"/>
<path d="M32.1184 52.3671H47.0454V37.1769H32.1184V52.3671Z" fill="#EC1E28"/>
<path d="M119.944 52.3655L47.5415 52.3636V37.1811H119.944V52.3655Z" fill="#100F0D"/>
<path d="M56.3207 39.9815C55.8071 39.7935 55.1016 39.699 54.2238 39.699H50.5322V40.2515H51.0356C51.3628 40.2515 51.5992 40.3393 51.7599 40.5235C51.8179 40.5918 51.9168 40.8241 51.9168 41.5899V48.0057C51.9168 48.7054 51.8412 48.9303 51.7965 49.0012C51.6466 49.2313 51.3983 49.3446 51.0356 49.3446H50.5322V49.8958H54.9669V49.3446H54.4585C54.1319 49.3446 53.9001 49.2562 53.7476 49.074C53.6831 49.0023 53.5823 48.772 53.5823 48.0057V45.2969C53.8269 45.349 54.0672 45.3905 54.2929 45.4213C54.5716 45.4576 54.8325 45.4761 55.0662 45.4761C56.047 45.4761 56.8243 45.2052 57.3683 44.6724C57.9152 44.1381 58.192 43.4384 58.192 42.5913C58.192 41.9637 58.0086 41.4139 57.646 40.9558C57.2881 40.5009 56.8427 40.1733 56.3207 39.9815ZM53.5823 40.678C53.8982 40.6056 54.1646 40.5664 54.3684 40.5664C54.738 40.5664 55.0701 40.6531 55.3581 40.8222C55.6434 40.9898 55.8673 41.2477 56.0224 41.5881C56.1839 41.9364 56.2646 42.3185 56.2646 42.7265C56.2646 43.3132 56.0974 43.7945 55.7701 44.1601C55.4366 44.526 55.0546 44.704 54.6016 44.704C54.4715 44.704 54.3095 44.6929 54.1239 44.6701C53.9643 44.6481 53.7786 44.6167 53.5823 44.5815V40.678Z" fill="white"/>
<path d="M67.2003 39.6378V40.1908H67.7033C68.0266 40.1908 68.2621 40.279 68.4203 40.464C68.4819 40.5347 68.5848 40.7717 68.5848 41.5287V45.5374C68.5848 46.5633 68.4964 47.2965 68.3208 47.7183C68.1476 48.1252 67.8202 48.4678 67.3445 48.7326C66.866 49.0013 66.3107 49.1377 65.6966 49.1377C65.2221 49.1377 64.8174 49.0533 64.4946 48.884C64.1766 48.7174 63.9272 48.5008 63.7592 48.2459C63.5888 47.9884 63.469 47.6163 63.4032 47.144C63.3346 46.6593 63.2986 46.2212 63.2986 45.8441V41.5287C63.2986 40.8773 63.3817 40.6177 63.4509 40.5155C63.5928 40.2963 63.8312 40.1908 64.1795 40.1908H64.6848V39.6378H60.2493V40.1908H60.7476C61.065 40.1908 61.2918 40.2705 61.4256 40.4253C61.5221 40.5375 61.6349 40.8195 61.6349 41.5287V45.3994C61.6349 46.6227 61.7123 47.4352 61.8728 47.8864C62.1118 48.5454 62.5252 49.0768 63.0962 49.4683C63.6696 49.8577 64.5104 50.0535 65.5954 50.0535C66.5973 50.0535 67.4015 49.8485 67.9917 49.4428C68.5825 49.0376 68.9831 48.5402 69.1861 47.9673C69.3861 47.4071 69.4856 46.6158 69.4856 45.6107V41.6027C69.4856 40.915 69.5652 40.6935 69.6118 40.6208C69.7925 40.3306 70.0403 40.1908 70.3694 40.1908H70.8718V39.6378H67.2003Z" fill="white"/>
<path d="M81.9499 48.9546C81.637 48.75 81.2503 48.3217 80.8049 47.6832C80.8049 47.6832 79.3396 45.6245 78.9076 45.013C79.6501 44.8156 80.2182 44.5001 80.5927 44.0711C81.0037 43.5992 81.2155 43.0323 81.2155 42.3894C81.2155 41.788 81.0306 41.2609 80.6671 40.8246C80.31 40.3941 79.8681 40.0941 79.353 39.9336C78.8494 39.7763 78.0667 39.6953 77.0235 39.6953H73.3381V40.2486H73.841C74.1656 40.2486 74.4022 40.3382 74.5592 40.5212C74.6203 40.5913 74.7232 40.8217 74.7232 41.5876V48.0014C74.7232 48.7019 74.6441 48.9249 74.597 48.9973C74.4493 49.2301 74.2016 49.3422 73.841 49.3422H73.3381V49.8942H77.7742V49.3422H77.2584C76.9387 49.3422 76.7089 49.2538 76.5542 49.0706C76.4909 48.9996 76.3897 48.7696 76.3897 48.0014V45.2604L76.4624 45.2651L76.6613 45.2688C76.802 45.2688 76.9741 45.2645 77.1758 45.2565L80.4839 49.8942H83.3076V49.3568L83.1838 49.344C82.675 49.2867 82.2609 49.1577 81.9499 48.9546ZM76.3897 40.6615C76.7933 40.5825 77.1241 40.5393 77.3654 40.5393C77.9446 40.5393 78.4121 40.7205 78.7628 41.0783C79.1152 41.4397 79.2873 41.9001 79.2873 42.4838C79.2873 43.0773 79.0738 43.5529 78.6348 43.9366C78.1976 44.3198 77.5282 44.5141 76.6473 44.5141L76.3897 44.5094V40.6615Z" fill="white"/>
<path d="M85.8232 39.7001V40.2517H86.3059C86.5088 40.2517 86.7071 40.3046 86.8943 40.4105C87.0118 40.4791 87.0909 40.5614 87.1258 40.6521C87.163 40.7492 87.2084 40.993 87.2084 41.5929V48.0067C87.2084 48.741 87.1164 48.9737 87.0635 49.0461C86.9117 49.2488 86.6612 49.3459 86.3059 49.3459H85.8232V49.899H90.2593V49.3459H89.7704C89.5691 49.3459 89.3749 49.2938 89.194 49.1903C89.072 49.1193 88.9911 49.0392 88.9551 48.9471C88.919 48.85 88.8736 48.608 88.8736 48.0067V41.5929C88.8736 40.8594 88.9644 40.6284 89.0208 40.555C89.1749 40.3504 89.4203 40.2517 89.7704 40.2517H90.2593V39.7001H85.8232Z" fill="white"/>
<path d="M104.49 39.6996H100.819V40.2509H101.297C101.639 40.2509 101.888 40.3382 102.037 40.5121C102.1 40.5837 102.205 40.8142 102.205 41.5661V46.877L96.3996 39.6996H93.5486V40.2509H93.6876C93.9574 40.2509 94.1562 40.2713 94.2801 40.3105C94.5441 40.3981 94.7453 40.4935 94.8831 40.5942C95.0099 40.6889 95.2099 40.8958 95.4663 41.2067V48.03C95.4663 48.7221 95.3832 48.9493 95.3332 49.0249C95.1867 49.2394 94.936 49.3446 94.5616 49.3446H94.0813V49.8966H97.7545V49.3446H97.2672C96.9311 49.3446 96.6817 49.2568 96.5282 49.0822C96.4683 49.014 96.3665 48.7847 96.3665 48.03V42.3156L102.646 50.0572H103.104V41.5661C103.104 40.8739 103.188 40.6457 103.238 40.5722C103.386 40.356 103.635 40.2509 104.005 40.2509H104.49V39.6996Z" fill="white"/>
<path d="M116.822 49.3442C116.46 49.3208 116.174 49.2203 115.977 49.0442C115.77 48.8619 115.531 48.4443 115.269 47.804L111.913 39.4789H111.439L107.919 47.7039C107.629 48.4074 107.367 48.8732 107.136 49.0939C107.08 49.1493 106.912 49.2549 106.419 49.3447L106.303 49.3654V49.8936H109.641V49.3516L109.512 49.3442C108.966 49.303 108.755 49.2159 108.672 49.1504C108.567 49.0633 108.514 48.9697 108.514 48.8627C108.514 48.7441 108.555 48.5085 108.746 48.0542C108.746 48.0542 109.237 46.9122 109.374 46.59H112.976C113.1 46.8968 113.518 47.9288 113.518 47.9288C113.701 48.3697 113.794 48.6917 113.794 48.8835C113.794 48.9991 113.744 49.0939 113.642 49.1778C113.566 49.2414 113.379 49.3223 112.934 49.3442L112.801 49.3493V49.8936H116.954V49.3501L116.822 49.3442ZM111.23 42.2489L112.636 45.746H109.736L111.23 42.2489Z" fill="white"/>
<path d="M32.6523 51.8275H46.5145V37.7186H32.6523V51.8275Z" fill="white"/>
<path d="M33.1848 51.2797H37.4497V46.9391H33.1848V51.2797Z" fill="#EC1E28"/>
<path d="M41.7156 51.2797H45.9796V46.9391H41.7156V51.2797Z" fill="#EC1E28"/>
<path d="M37.45 46.9439H41.7155V42.6025H37.45V46.9439Z" fill="#EC1E28"/>
<path d="M33.1848 42.6043H37.4497V38.2664H33.1848V42.6043Z" fill="#EC1E28"/>
<path d="M41.7156 42.6043H45.9796V38.2664H41.7156V42.6043Z" fill="#EC1E28"/>
<path d="M137.464 77.1337V77.771H130.687V77.1337H131.215C132.675 77.1337 133.188 76.2567 133.188 75.011C133.188 70.2947 133.186 65.9098 133.195 61.194C133.196 60.5898 132.539 59.7063 131.159 59.7063H130.741C130.741 59.5944 130.743 59.3455 130.743 59.0764H135.78C140.083 64.0391 147.88 73.2209 148.007 73.3581C148.007 73.1642 148.008 65.7672 148.005 62.0195C148.005 60.946 148.029 59.7063 145.754 59.7063H145.135V59.0764H151.987V59.7063H151.429C149.979 59.7063 149.329 59.9104 149.328 61.526V77.7663H148.312C144.934 74.1388 134.844 62.1017 134.511 61.7881C134.511 61.8029 134.508 70.6782 134.513 74.9559C134.516 76.8887 135.649 77.1337 136.827 77.1337H137.464Z" fill="#FCD072"/>
<path d="M90.1365 77.7661V77.1341C90.5475 77.1341 90.215 77.133 91.2576 77.133C92.3014 77.133 92.9468 76.7056 92.9468 75.2204C92.9468 70.7891 92.9485 66.3138 92.9433 61.8831C92.9421 60.7026 92.6199 59.7043 91.1441 59.7043C90.8314 59.7043 90.5761 59.7068 90.2393 59.7068V59.0762H99.1913V59.7068C98.5598 59.7068 97.9248 59.7043 97.291 59.7073C95.7309 59.7132 95.7239 60.7547 95.7239 61.8377C95.7234 66.3403 95.7233 70.9666 95.7233 75.4689C95.7233 76.3998 96.0031 76.7712 96.8944 76.7712C98.2028 76.7712 100.34 76.7727 101.967 76.7727C103.595 76.7727 104.974 75.921 106.516 73.8132C106.74 73.9403 106.779 73.9671 107.004 74.0988C106.432 75.2026 105.691 76.6612 105.122 77.7661H90.1365Z" fill="#FCD072"/>
<path d="M43.0769 77.3269C39.9299 77.0642 37.9989 75.1688 36.5407 73.8468C35.0827 72.5253 32.9136 70.4932 32.9136 70.4932C35.6921 69.6667 37.4388 67.5162 37.4388 64.9C37.4388 60.9996 34.0309 58.7629 27.972 58.7629C25.8044 58.7629 22.4077 58.9097 19.811 59.0762V59.7061C20.1306 59.6866 20.3659 59.6742 20.6958 59.6742C21.871 59.6742 23.1048 59.9606 23.1048 62.4827V74.2557C23.1048 76.4623 22.4667 77.1345 20.3775 77.1345H19.811V77.7666H29.3946V77.1345H28.6248C26.8565 77.1345 25.8993 76.7198 25.8993 74.5326V71.5182C26.5248 71.588 27.1454 71.5974 27.7063 71.5974C28.7681 71.5974 29.9936 71.481 29.9936 71.481C29.9936 71.481 31.0274 72.52 33.5714 74.7646C36.1148 77.0079 37.0367 77.9732 41.7874 77.9732C42.1722 77.9732 42.5754 77.9626 43.0787 77.933L43.0769 77.3269ZM25.8993 70.8163V59.5629C26.3502 59.5103 27.1499 59.4724 27.7807 59.4724C32.2645 59.4724 34.2713 61.2636 34.2713 65.1071C34.2713 69.0767 31.9851 70.8874 27.7721 70.8874C27.4073 70.8874 26.6048 70.8691 25.8993 70.8163Z" fill="#FCD072"/>
<path d="M17.9214 64.9C17.9214 61.0001 14.5141 58.7635 8.45527 58.7635C6.28721 58.7635 2.89055 58.9102 0.294556 59.0767V59.7065C0.613237 59.6872 0.848778 59.6746 1.17927 59.6746C2.35428 59.6746 3.58742 59.9618 3.58742 62.4832V74.2556C3.58742 76.4629 2.94961 77.1351 0.860367 77.1351H0.294556V77.7678H9.87786V77.1351H9.10787C7.33981 77.1351 6.38218 76.7197 6.38218 74.5324V71.5182C7.00819 71.588 7.62892 71.5975 8.18977 71.5975C12.4596 71.5975 17.9214 69.9399 17.9214 64.9ZM6.38218 70.8175V59.5635C6.83305 59.5107 7.63329 59.4736 8.26403 59.4736C12.7478 59.4736 14.7542 61.2641 14.7542 65.1071C14.7542 69.0765 12.4684 70.8878 8.25495 70.8878C7.8906 70.8878 7.08838 70.8703 6.38218 70.8175Z" fill="#FCD072"/>
<path d="M87.7557 64.9C87.7557 61.0001 84.3488 58.7635 78.2892 58.7635C76.1214 58.7635 72.7244 58.9102 70.1287 59.0767V59.7065C70.4467 59.6872 70.6827 59.6746 71.0125 59.6746C72.1876 59.6746 73.4221 59.9618 73.4221 62.4832V74.2556C73.4221 76.4629 72.7831 77.1351 70.6944 77.1351H70.1287V77.7678H79.7121V77.1351H78.9416C77.1739 77.1351 76.2162 76.7197 76.2162 74.5324V71.5182C76.8418 71.588 77.4623 71.5975 78.0235 71.5975C82.2938 71.5975 87.7557 69.9399 87.7557 64.9ZM76.2162 70.8175V59.5635C76.6668 59.5107 77.467 59.4736 78.0979 59.4736C82.5816 59.4736 84.5883 61.2641 84.5883 65.1071C84.5883 69.0765 82.3031 70.8878 78.0886 70.8878C77.724 70.8878 76.9221 70.8703 76.2162 70.8175Z" fill="#FCD072"/>
<path d="M53.0677 58.4754C46.8487 58.4754 42.335 62.748 42.335 68.6335C42.335 73.973 46.8879 78 52.9239 78C58.8795 78 63.3686 73.5813 63.3686 67.7235C63.3686 62.5372 58.8446 58.4754 53.0677 58.4754ZM53.5303 77.2585C48.8792 77.2585 45.3712 73.151 45.3712 67.7052C45.3712 64.2935 47.2228 59.218 52.317 59.218C57.0355 59.218 60.332 63.1213 60.332 68.7101C60.332 72.8267 58.2038 77.2585 53.5303 77.2585Z" fill="#FCD072"/>
<path d="M111.702 75.4532C111.197 76.6869 111.9 77.1337 113.651 77.1337H114.653V77.7693H107.388V77.1337H107.605C109.335 77.1337 109.827 76.1402 110.75 73.9525C112.426 69.9828 114.03 66.0056 115.693 62.032C116.026 61.2373 116.337 60.539 116.651 59.7396C116.745 59.4998 116.741 59.3915 116.577 59.0764H119.51C120.159 60.5727 120.75 61.9455 121.392 63.4303C123.121 67.4443 124.594 71.4588 126.332 75.4722C126.738 76.4136 127.241 77.1337 128.902 77.1337H129.358V77.7663H120.251V77.1337H121.511C123.039 77.1337 123.862 76.8965 123.442 75.7264C123 74.6785 118.545 63.6138 117.52 61.2414C116.532 63.6119 112.083 74.4932 111.702 75.4532Z" fill="#FCD072"/>
<path d="M112.45 69.0062C114.604 69.0062 117.819 71.086 120.119 71.086C120.997 71.086 121.394 70.8483 121.589 70.7085C121.786 70.569 121.949 71.0625 121.855 71.1695C121.505 71.5602 120.71 72.5318 118.716 72.5318C116.209 72.5318 113.864 70.6388 111.631 70.6388C110.395 70.6388 109.253 70.9595 108.036 72.1039L107.562 71.8193C108.11 70.9612 109.547 69.0062 112.45 69.0062Z" fill="#FCD072"/>
<path d="M0.232788 28.8842V28.825H0.407232V28.7659H0.639826V28.7066H0.81427V28.6474H0.988715V28.5883H1.16316V28.5291H1.39575V28.4699H1.5702V28.4108H1.74464V28.3516H1.97723V28.2924H2.15168V28.2333H2.32612V28.174H2.50057V28.1148H2.73316V28.0557H2.9076V27.9965H3.08205V27.9373H3.31464V27.8782H3.48909V27.819H3.66353V27.7598H3.89613V27.7007H4.07057V27.6415H4.24501V27.5823H4.41946V27.5231H4.65205V27.4639H4.8265V27.4048H5.00095V27.3456H5.23354V27.2864H5.40798V27.2273H5.58242V27.1681H5.81501V27.1089H5.98946V27.0497H6.16391V26.9905H6.33835V26.9313H6.57094V26.8722H6.74539V26.813H6.91983V26.7538H7.15243V26.6947H7.32687V26.6355H7.50131V26.5763H7.67576V26.5172H7.90835V26.4579H8.0828V26.3987H8.25724V26.3396H8.48984V26.2804H8.66427V26.2212H8.83872V26.1621H9.07131V26.1029H9.24576V26.0438H9.42021V25.9846H9.59464V25.9253H9.82725V25.8662H10.0017V25.807H10.1761V25.7478H10.4087V25.6887H10.5832V25.6295H10.7576V25.5703H10.932V25.5112H11.1647V25.452H11.3391V25.3927H11.5136V25.3336H11.7462V25.2744H11.9206V25.2152H12.095V25.1561H12.3276V25.0969H12.502V25.0377H12.6765V24.9786H12.8509V24.9194H13.0835V24.8601H13.2579V24.801H13.4325V24.7418H13.6651V24.6826H13.8395V24.6235H14.0139V24.5643H14.2465V24.5052H14.421V24.446H14.5954V24.3868H14.7698V24.3277H15.0024V24.2684H15.1768V24.2092H15.3513V24.1501H15.5839V24.0909H15.7584V24.0317H15.9328V23.9726H16.1073V23.9134H16.3399V23.8542H16.5143V23.7951H16.6887V23.7358H16.9213V23.6766H17.0958V23.6175H17.2702V23.5583H17.5028V23.4991H17.6772V23.44H17.8516V23.3808H18.0262V23.3216H18.2588V23.2625H18.4332V23.2032H18.6076V23.144H18.8402V23.0849H19.0147V23.0257H19.1891V22.9666H19.4217V22.9074H19.5961V22.8482H19.7706V22.7891H19.945V22.7299H20.1776V22.6707H20.3521V22.6115H20.5266V22.5523H20.7591V22.4931H20.9336V22.434H21.108V22.3748H21.2824V22.3156H21.515V22.2565H21.6895V22.1973H21.8639V22.1381H22.0965V22.079H22.2709V22.0197H22.4454V21.9605H22.678V21.9014H22.8525V21.8422H23.0269V21.783H23.2014V21.7239H23.4339V21.6647H23.6084V21.6055H23.7828V21.5464H24.0154V21.4871H24.1898V21.428H24.3643V21.3688H24.5387V21.3096H24.7713V21.2505H24.9458V21.1913H25.1203V21.1321H25.3528V21.073H25.5273V21.0138H25.7017V20.9545H25.9343V20.8954H26.1087V20.8362H26.2832V20.777H26.4576V20.7179H26.6902V20.6587H26.8646V20.5995H27.0391V20.5404H27.2718V20.4812H27.4462V20.4219H27.6206V20.3628H27.8532V20.3036H28.0276V20.2444H28.2021V20.1853H28.3765V20.1261H28.6091V20.0669H28.7835V20.0078H28.958V19.9486H29.1906V19.8895H29.365V19.8302H29.5395V19.771H29.714V19.7119H29.9466V19.6527H30.121V19.5935H30.2954V19.5344H30.528V19.4752H30.7024V19.416H30.8769V19.3569H31.1095V19.2976H31.2839V19.2384H31.4583V19.1793H31.6328V19.1201H31.8655V19.0609H32.0399V19.0018H32.2143V18.9426H32.4469V18.8834H32.6214V18.8243H32.7958V18.765H33.0284V18.7058H33.2028V18.6467H33.3773V18.5875H33.5517V18.5283H33.7843V18.4692H33.9587V18.41H34.1331V18.3508H34.3658V18.2917H34.5403V18.2325H34.7147V18.1733H34.8891V18.1141H35.1217V18.0549H35.2962V17.9958H35.4706V17.9366H35.7032V17.8774H35.8776V17.8183H36.052V17.7591H36.2846V17.6999H36.4591V17.6408H36.6336V17.5815H36.808V17.5223H37.0406V17.4632H37.2151V17.404H37.3895V17.3448H37.6221V17.2857H37.7965V17.2265H37.971V17.1673H38.1454V17.1082H38.378V17.0489H38.5524V16.9897H38.7268V16.9306H38.9595V16.8714H39.134V16.8122H39.3084V16.7531H39.541V16.6939H39.7154V16.6348H39.8899V16.5756H40.0643V16.5163H40.2969V16.4572H40.4713V16.398H40.6458V16.3388H40.8783V16.2797H41.0528V16.2205H41.2273V16.1613H41.4599V16.1022H41.6343V16.043H41.8088V15.9837H41.9832V15.9246H42.2158V15.8654H42.3902V15.8062H42.5647V15.7471H42.7972V15.6879H42.9717V15.6287H43.1461V15.5696H43.3206V15.5104H43.5532V15.4511H43.7277V15.392H43.9021V15.3328H44.1347V15.2736H44.3091V15.2145H44.4836V15.1553H44.7162V15.0962H44.8906V15.037H45.065V14.9778H45.2395V14.9187H45.472V14.8594H45.6465V14.8002H45.821V14.7411H46.0536V14.6819H46.2281V14.6227H46.4025V14.5636H46.5769V14.5044H46.8095V14.4452H46.9839V14.3861H47.1584V14.3268H47.391V14.2676H47.5654V14.2085H47.7398V14.1493H47.9725V14.0901H48.147V14.031H48.3214V13.9718H48.4958V13.9126H48.7284V13.8535H48.9028V13.7943H49.0773V13.735H49.3099V13.6759H49.4843V13.6167H49.6587V13.5576H49.8913V13.4984H50.0658V13.4392H50.2402V13.3801H50.4147V13.3209H50.6473V13.2617H50.8218V13.2026H50.9962V13.1433H51.2288V13.0841H51.4032V13.025H51.5776V12.9658H51.7521V12.9066H51.9847V12.8475H52.1591V12.7883H52.3335V12.7291H52.5661V12.67H52.7407V12.6107H52.9151V12.5515H53.1477V12.4924H53.3221V12.4332H53.4966V12.374H53.671V12.3149H53.9036V12.2557H54.078V12.1965H54.2524V12.1374H54.485V12.0781H54.6595V12.019H54.8339V11.9598H55.0666V11.9006H55.241V11.8415H55.4155V11.7823H55.5899V11.7231H55.8225V11.664H55.9969V11.6048H56.1714V11.5455H56.4039V11.4864H56.5784V11.4272H56.7528V11.368H56.9272V11.3089H57.1598V11.2497H57.3344V11.1905H57.5088V11.1314H57.7414V11.0722H57.9158V11.0129H58.0903V10.9538H58.3228V10.8946H58.4973V10.8355H58.6717V10.7763H58.8462V10.7171H59.0787V10.6579H59.2532V10.5988H59.4276V10.5396H59.6603V10.4804H59.8347V10.4212H60.0092V10.3621H60.1836V10.3029H60.4162V10.2437H60.5906V10.1845H60.7651V10.1254H60.9977V10.0662H61.1721V10.007H61.3465V9.94782H61.5791V9.88865H61.7535V9.82947H61.9281V9.7703H62.1025V9.71112H62.3351V9.65194H62.5095V9.59277H62.684V9.53359H62.9166V9.47442H63.091V9.41523H63.2654V9.35606H63.498V9.29688H63.6725V9.23771H63.8469V9.17853H64.0213V9.11936H64.254V9.06018H64.4285V9.001H64.6029V8.94183H64.8355V8.88265H65.0099V8.82348H65.1843V8.7643H65.3588V8.70513H65.5914V8.64595H65.7658V8.58678H65.9402V8.52759H66.1728V8.46842H66.3472V8.40924H66.5218V8.35006H66.7544V8.29089H66.9288V8.23171H67.1032V8.17254H67.2777V8.11336H67.5103V8.05419H67.6847V7.99501H67.8591V7.93584H68.0917V7.87666H68.2662V7.81749H68.4406V7.75831H68.615V7.69912H68.8477V7.63995H69.0222V7.58077H69.1966V7.5216H69.4292V7.46242H69.6036V7.40325H69.778V7.34407H70.0106V7.2849H70.1851V7.22572H70.3595V7.16655H70.5339V7.10737H70.7665V7.0482H70.941V6.98902H71.1155V6.92984H71.3481V6.87067H71.5225V6.81148H71.697V6.75231H71.9295V6.69313H72.104V6.63396H72.2784V6.57478H72.4529V6.51561H72.6854V6.45643H72.8599V6.39726H73.0343V6.33808H73.2669V6.2789H73.4414V6.21973H73.6159V6.16055H73.7903V6.10138H74.0229V6.0422H74.1973V5.98303H74.3718V5.92384H74.6043V5.86467H74.7788V5.80549H74.9532V5.74632H75.1858V5.68714H75.3602V5.62797H75.5347V5.56879H75.7092V5.50962H75.9418V5.45044H76.3488V5.50962H76.5233V5.56879H76.6977V5.62797H76.8721V5.68714H77.1047V5.74632H77.2791V5.80549H77.4536V5.86467H77.6862V5.92384H77.8606V5.98303H78.0351V6.0422H78.2096V6.10138H78.4422V6.16055H78.6166V6.21973H78.791V6.2789H79.0236V6.33808H79.198V6.39726H79.3725V6.45643H79.6051V6.51561H79.7795V6.57478H79.9539V6.63396H80.1284V6.69313H80.3611V6.75231H80.5355V6.81148H80.7099V6.87067H80.9425V6.92984H81.117V6.98902H81.2914V7.0482H81.524V7.10737H81.6984V7.16655H81.8729V7.22572H82.0473V7.2849H82.2799V7.34407H82.4543V7.40325H82.6289V7.46242H82.8614V7.5216H83.0359V7.58077H83.2103V7.63995H83.3847V7.69912H83.6173V7.75831H83.7918V7.81749H83.9662V7.87666H84.1988V7.93584H84.3732V7.99501H84.5476V8.05419H84.7802V8.11336H84.9548V8.17254H85.1292V8.23171H85.3036V8.29089H85.5362V8.35006H85.7107V8.40924H85.8851V8.46842H86.1177V8.52759H86.2921V8.58678H86.4666V8.64595H86.641V8.70513H86.8736V8.7643H87.048V8.82348H87.2226V8.88265H87.4551V8.94183H87.6296V9.001H87.804V9.06018H88.0366V9.11936H88.211V9.17853H88.3855V9.23771H88.5599V9.29688H88.7925V9.35606H88.9669V9.41523H89.1414V9.47442H89.3739V9.53359H89.5485V9.59277H89.7229V9.65194H89.9555V9.71112H90.1299V9.7703H90.3044V9.82947H90.4788V9.88865H90.7114V9.94782H90.8858V10.007H91.0603V10.0662H91.2928V10.1254H91.4673V10.1845H91.6417V10.2437H91.8163V10.3029H92.0489V10.3621H92.2233V10.4212H92.3977V10.4804H92.6303V10.5396H92.8047V10.5988H92.9792V10.6579H93.2118V10.7171H93.3862V10.7763H93.5606V10.8355H93.7351V10.8946H93.9677V10.9538H94.1422V11.0129H94.3166V11.0722H94.5492V11.1314H94.7237V11.1905H94.8981V11.2497H95.1307V11.3089H95.3051V11.368H95.4795V11.4272H95.654V11.4864H95.8866V11.5455H96.061V11.6048H96.2354V11.664H96.4681V11.7231H96.6426V11.7823H96.817V11.8415H96.9914V11.9006H97.224V11.9598H97.3984V12.019H97.5729V12.0781H97.8055V12.1374H97.9799V12.1965H98.1543V12.2557H98.3869V12.3149H98.5614V12.374H98.7359V12.4332H98.9103V12.4924H99.1429V12.5515H99.3174V12.6107H99.4918V12.67H99.7244V12.7291H99.8988V12.7883H100.073V12.8475H100.248V12.9066H100.48V12.9658H100.655V13.025H100.829V13.0841H101.062V13.1433H101.236V13.2026H101.411V13.2617H101.643V13.3209H101.818V13.3801H101.992V13.4392H102.167V13.4984H102.399V13.5576H102.574V13.6167H102.748V13.6759H102.981V13.735H103.155V13.7943H103.33V13.8535H103.562V13.9126H103.737V13.9718H103.911V14.031H104.086V14.0901H104.318V14.1493H104.493V14.2085H104.667V14.2676H104.9V14.3268H105.074V14.3861H105.248V14.4452H105.423V14.5044H105.656V14.5636H105.83V14.6227H106.004V14.6819H106.237V14.7411H106.411V14.8002H106.586V14.8594H106.818V14.9187H106.993V14.9778H107.167V15.037H107.342V15.0962H107.574V15.1553H107.749V15.2145H107.923V15.2736H108.156V15.3328H108.33V15.392H108.505V15.4511H108.679V15.5104H108.912V15.5696H109.086V15.6287H109.261V15.6879H109.493V15.7471H109.668V15.8062H109.843V15.8654H110.075V15.9246H110.249V15.9837H110.424V16.043H110.599V16.1022H110.831V16.1613H111.005V16.2205H111.18V16.2797H111.412V16.3388H111.587V16.398H111.761V16.4572H111.994V16.5163H112.168V16.5756H112.343V16.6348H112.517V16.6939H112.75V16.7531H112.924V16.8122H113.099V16.8714H113.331V16.9306H113.506V16.9897H113.68V17.0489H113.855V17.1082H114.087V17.1673H114.262V17.2265H114.436V17.2857H114.669V17.3448H114.843V17.404H115.018V17.4632H115.25V17.5223H115.425V17.5815H115.599V17.6408H115.773V17.6999H116.006V17.7591H116.181V17.8183H116.355V17.8774H116.588V17.9366H116.762V17.9958H116.937V18.0549H117.169V18.1141H117.344V18.1733H117.518V18.2325H117.692V18.2917H117.925V18.3508H118.1V18.41H118.274V18.4692H118.507V18.5283H118.681V18.5875H118.856V18.6467H119.029V18.7058H119.263V18.765H119.437V18.8243H119.611V18.8834H119.844V18.9426H120.019V19.0018H120.192V19.0609H120.425V19.1201H120.6V19.1793H120.775V19.2384H120.948V19.2976H121.181V19.3569H121.356V19.416H121.529V19.4752H121.763V19.5344H121.937V19.5935H122.111V19.6527H122.285V19.7119H122.519V19.771H122.692V19.8302H122.867V19.8895H123.1V19.9486H123.275V20.0078H123.448V20.0669H123.682V20.1261H123.856V20.1853H124.03V20.2444H124.204V20.3036H124.438V20.3628H124.611V20.4219H124.786V20.4812H125.019V20.5404H125.193V20.5995H125.367V20.6587H125.601V20.7179H125.775V20.777H125.949V20.8362H126.123V20.8954H126.357V20.9545H126.53V21.0138H126.705V21.073H126.938V21.1321H127.112V21.1913H127.286V21.2505H127.461V21.3096H127.694V21.3688H127.868V21.428H128.042V21.4871H128.276V21.5464H128.449V21.6055H128.624V21.6647H128.857V21.7239H129.031V21.783H129.205V21.8422H129.38V21.9014H129.612V21.9605H129.787V22.0197H129.961V22.079H130.195V22.1381H130.368V22.1973H130.543V22.2565H130.776V22.3156H130.949V22.3748H131.124V22.434H131.299V22.4931H131.531V22.5523H131.705V22.6115H131.88V22.6707H132.113V22.7299H132.287V22.7891H132.461V22.8482H132.636V22.9074H132.868V22.9666H133.043V23.0257H133.217V23.0849H133.45V23.144H133.624V23.2032H133.799V23.2625H134.031V23.3216H134.206V23.3808H134.38V23.44H134.555V23.4991H134.787V23.5583H134.962V23.6175H135.136V23.6766H135.369V23.7358H135.543V23.7951H135.718V23.8542H135.892V23.9134H136.125V23.9726H136.299V24.0317H136.474V24.0909H136.706V24.1501H136.881V24.2092H137.055V24.2684H137.288V24.3277H137.462V24.3868H137.637V24.446H137.811V24.5052H138.044V24.5643H138.218V24.6235H138.393V24.6826H138.625V24.7418H138.8V24.801H138.974V24.8601H139.207V24.9194H139.381V24.9786H139.556V25.0377H139.73V25.0969H139.963V25.1561H140.137V25.2152H140.312V25.2744H140.544V25.3336H140.719V25.3927H140.893V25.452H141.068V25.5112H141.3V25.5703H141.475V25.6295H141.649V25.6887H141.881V25.7478H142.056V25.807H142.231V25.8662H142.463V25.9253H142.637V25.9846H142.812V26.0438H142.987V26.1029H143.219V26.1621H143.393V26.2212H143.568V26.2804H143.8V26.3396H143.975V26.3987H144.149V26.4579H144.324V26.5172H144.556V26.5763H144.731V26.6355H144.905V26.6947H145.138V26.7538H145.312V26.813H145.487V26.8722H145.719V26.9313H145.894V26.9905H146.068V27.0497H146.243V27.1089H146.475V27.1681H146.65V27.2273H146.824V27.2864H147.057V27.3456H147.231V27.4048H147.406V27.4639H147.638V27.5231H147.813V27.5823H147.987V27.6415H148.162V27.7007H148.394V27.7598H148.569V27.819H148.743V27.8782H148.976V27.9373H149.15V27.9965H149.325V28.0557H149.499V28.1148H149.732V28.174H149.906V28.2333H150.081V28.2924H150.313V28.3516H150.488V28.4108H150.662V28.4699H150.895V28.5291H151.069V28.5883H151.244V28.6474H151.418V28.7066H151.651V28.7659H151.825V28.825H152V28.8842H151.708V28.825H151.418V28.7659H151.186V28.7066H150.895V28.6474H150.662V28.5883H150.371V28.5291H150.139V28.4699H149.848V28.4108H149.616V28.3516H149.325V28.2924H149.092V28.2333H148.801V28.174H148.569V28.1148H148.279V28.0557H148.045V27.9965H147.755V27.9373H147.523V27.8782H147.231V27.819H146.999V27.7598H146.708V27.7007H146.475V27.6415H146.185V27.5823H145.953V27.5231H145.661V27.4639H145.37V27.4048H145.138V27.3456H144.848V27.2864H144.615V27.2273H144.324V27.1681H144.092V27.1089H143.8V27.0497H143.568V26.9905H143.278V26.9313H143.044V26.8722H142.754V26.813H142.522V26.7538H142.231V26.6947H141.998V26.6355H141.707V26.5763H141.475V26.5172H141.184V26.4579H140.951V26.3987H140.661V26.3396H140.428V26.2804H140.137V26.2212H139.905V26.1621H139.615V26.1029H139.381V26.0438H139.091V25.9846H138.8V25.9253H138.567V25.8662H138.277V25.807H138.044V25.7478H137.753V25.6887H137.521V25.6295H137.23V25.5703H136.997V25.5112H136.706V25.452H136.474V25.3927H136.184V25.3336H135.95V25.2744H135.66V25.2152H135.428V25.1561H135.136V25.0969H134.904V25.0377H134.614V24.9786H134.38V24.9194H134.09V24.8601H133.858V24.801H133.567V24.7418H133.334V24.6826H133.043V24.6235H132.811V24.5643H132.52V24.5052H132.229V24.446H131.997V24.3868H131.705V24.3277H131.473V24.2684H131.183V24.2092H130.949V24.1501H130.659V24.0909H130.427V24.0317H130.136V23.9726H129.903V23.9134H129.612V23.8542H129.38V23.7951H129.089V23.7358H128.857V23.6766H128.566V23.6175H128.333V23.5583H128.042V23.4991H127.81V23.44H127.52V23.3808H127.286V23.3216H126.996V23.2625H126.764V23.2032H126.472V23.144H126.24V23.0849H125.949V23.0257H125.716V22.9666H125.426V22.9074H125.135V22.8482H124.903V22.7891H124.611V22.7299H124.379V22.6707H124.089V22.6115H123.856V22.5523H123.565V22.4931H123.333V22.434H123.041V22.3748H122.809V22.3156H122.519V22.2565H122.285V22.1973H121.995V22.1381H121.763V22.079H121.472V22.0197H121.239V21.9605H120.948V21.9014H120.716V21.8422H120.425V21.783H120.192V21.7239H119.902V21.6647H119.669V21.6055H119.378V21.5464H119.146V21.4871H118.856V21.428H118.564V21.3688H118.332V21.3096H118.041V21.2505H117.808V21.1913H117.518V21.1321H117.285V21.073H116.995V21.0138H116.762V20.9545H116.471V20.8954H116.239V20.8362H115.947V20.777H115.715V20.7179H115.425V20.6587H115.191V20.5995H114.901V20.5404H114.669V20.4812H114.377V20.4219H114.145V20.3628H113.855V20.3036H113.621V20.2444H113.331V20.1853H113.099V20.1261H112.808V20.0669H112.575V20.0078H112.284V19.9486H111.994V19.8895H111.761V19.8302H111.47V19.771H111.238V19.7119H110.947V19.6527H110.714V19.5935H110.424V19.5344H110.191V19.4752H109.9V19.416H109.668V19.3569H109.377V19.2976H109.144V19.2384H108.854V19.1793H108.621V19.1201H108.33V19.0609H108.098V19.0018H107.807V18.9426H107.574V18.8834H107.284V18.8243H107.051V18.765H106.76V18.7058H106.528V18.6467H106.237V18.5875H106.004V18.5283H105.714V18.4692H105.423V18.41H105.19V18.3508H104.9V18.2917H104.667V18.2325H104.376V18.1733H104.144V18.1141H103.853V18.0549H103.62V17.9958H103.33V17.9366H103.097V17.8774H102.806V17.8183H102.574V17.7591H102.283V17.6999H102.05V17.6408H101.76V17.5815H101.527V17.5223H101.236V17.4632H101.004V17.404H100.713V17.3448H100.48V17.2857H100.19V17.2265H99.957V17.1673H99.6662V17.1082H99.4336V17.0489H99.1429V16.9897H98.8522V16.9306H98.6195V16.8714H98.3288V16.8122H98.0962V16.7531H97.8055V16.6939H97.5729V16.6348H97.2822V16.5756H97.0496V16.5163H96.7589V16.4572H96.5263V16.398H96.2354V16.3388H96.0029V16.2797H95.7121V16.2205H95.4795V16.1613H95.1888V16.1022H94.9562V16.043H94.6655V15.9837H94.4329V15.9246H94.1422V15.8654H93.9095V15.8062H93.6188V15.7471H93.3862V15.6879H93.0955V15.6287H92.8629V15.5696H92.5722V15.5104H92.3396V15.4511H92.0489V15.392H91.758V15.3328H91.5254V15.2736H91.2347V15.2145H91.0021V15.1553H90.7114V15.0962H90.4788V15.037H90.1881V14.9778H89.9555V14.9187H89.6648V14.8594H89.4321V14.8002H89.1414V14.7411H88.9088V14.6819H88.618V14.6227H88.3855V14.5636H88.0947V14.5044H87.8622V14.4452H87.5714V14.3861H87.3389V14.3268H87.048V14.2676H86.8154V14.2085H86.5247V14.1493H86.2921V14.0901H86.0014V14.031H85.7688V13.9718H85.4781V13.9126H85.1874V13.8535H84.9548V13.7943H84.6639V13.735H84.4314V13.6759H84.1406V13.6167H83.9081V13.5576H83.6173V13.4984H83.3847V13.4392H83.094V13.3801H82.8614V13.3209H82.5707V13.2617H82.338V13.2026H82.0473V13.1433H81.8147V13.0841H81.524V13.025H81.2914V12.9658H81.0007V12.9066H80.7681V12.8475H80.4774V12.7883H80.2447V12.7291H79.9539V12.67H79.7214V12.6107H79.4306V12.5515H79.198V12.4924H78.9073V12.4332H78.6166V12.374H78.384V12.3149H78.0933V12.2557H77.8606V12.1965H77.5699V12.1374H77.3373V12.0781H77.0466V12.019H76.814V11.9598H76.5233V11.9006H76.2907V11.8415H75.9418V11.9006H75.7092V11.9598H75.4184V12.019H75.1858V12.0781H74.8951V12.1374H74.6625V12.1965H74.3718V12.2557H74.1392V12.3149H73.8484V12.374H73.6159V12.4332H73.3251V12.4924H73.0925V12.5515H72.8017V12.6107H72.5691V12.67H72.2784V12.7291H72.0458V12.7883H71.7551V12.8475H71.5225V12.9066H71.2318V12.9658H70.9992V13.025H70.7084V13.0841H70.4758V13.1433H70.1851V13.2026H69.8943V13.2617H69.6618V13.3209H69.371V13.3801H69.1385V13.4392H68.8477V13.4984H68.615V13.5576H68.3243V13.6167H68.0917V13.6759H67.801V13.735H67.5684V13.7943H67.2777V13.8535H67.0451V13.9126H66.7544V13.9718H66.5218V14.031H66.231V14.0901H65.9984V14.1493H65.7076V14.2085H65.4751V14.2676H65.1843V14.3268H64.9518V14.3861H64.661V14.4452H64.4285V14.5044H64.1377V14.5636H63.905V14.6227H63.6143V14.6819H63.3817V14.7411H63.091V14.8002H62.8003V14.8594H62.5677V14.9187H62.277V14.9778H62.0444V15.037H61.7535V15.0962H61.521V15.1553H61.2302V15.2145H60.9977V15.2736H60.7069V15.3328H60.4743V15.392H60.1836V15.4511H59.951V15.5104H59.6603V15.5696H59.4276V15.6287H59.1369V15.6879H58.9043V15.7471H58.6136V15.8062H58.381V15.8654H58.0903V15.9246H57.8577V15.9837H57.567V16.043H57.3344V16.1022H57.0435V16.1613H56.811V16.2205H56.5202V16.2797H56.2295V16.3388H55.9969V16.398H55.7062V16.4572H55.4736V16.5163H55.1829V16.5756H54.9503V16.6348H54.6595V16.6939H54.4269V16.7531H54.1362V16.8122H53.9036V16.8714H53.6129V16.9306H53.3803V16.9897H53.0895V17.0489H52.857V17.1082H52.5661V17.1673H52.3335V17.2265H52.0428V17.2857H51.8102V17.3448H51.5195V17.404H51.2869V17.4632H50.9962V17.5223H50.7636V17.5815H50.4729V17.6408H50.2402V17.6999H49.9495V17.7591H49.6587V17.8183H49.4262V17.8774H49.1354V17.9366H48.9028V17.9958H48.6121V18.0549H48.3795V18.1141H48.0888V18.1733H47.8561V18.2325H47.5654V18.2917H47.3328V18.3508H47.0421V18.41H46.8095V18.4692H46.5188V18.5283H46.2862V18.5875H45.9955V18.6467H45.7629V18.7058H45.472V18.765H45.2395V18.8243H44.9487V18.8834H44.7162V18.9426H44.4254V19.0018H44.1929V19.0609H43.9021V19.1201H43.6695V19.1793H43.3788V19.2384H43.088V19.2976H42.8554V19.3569H42.5647V19.416H42.3321V19.4752H42.0414V19.5344H41.8088V19.5935H41.5181V19.6527H41.2855V19.7119H40.9946V19.771H40.762V19.8302H40.4713V19.8895H40.2387V19.9486H39.948V20.0078H39.7154V20.0669H39.4247V20.1261H39.1921V20.1853H38.9014V20.2444H38.6687V20.3036H38.378V20.3628H38.1454V20.4219H37.8547V20.4812H37.6221V20.5404H37.3314V20.5995H37.0988V20.6587H36.808V20.7179H36.5755V20.777H36.2846V20.8362H35.9939V20.8954H35.7613V20.9545H35.4706V21.0138H35.238V21.073H34.9473V21.1321H34.7147V21.1913H34.424V21.2505H34.1914V21.3096H33.9006V21.3688H33.668V21.428H33.3773V21.4871H33.1447V21.5464H32.8539V21.6055H32.6214V21.6647H32.3306V21.7239H32.098V21.783H31.8072V21.8422H31.5746V21.9014H31.2839V21.9605H31.0513V22.0197H30.7606V22.079H30.528V22.1381H30.2373V22.1973H30.0047V22.2565H29.714V22.3156H29.4231V22.3748H29.1906V22.434H28.8998V22.4931H28.6672V22.5523H28.3765V22.6115H28.1439V22.6707H27.8532V22.7299H27.6206V22.7891H27.3299V22.8482H27.0972V22.9074H26.8065V22.9666H26.5739V23.0257H26.2832V23.0849H26.0506V23.144H25.7599V23.2032H25.5273V23.2625H25.2366V23.3216H25.004V23.3808H24.7131V23.44H24.4806V23.4991H24.1898V23.5583H23.9572V23.6175H23.6665V23.6766H23.4339V23.7358H23.1432V23.7951H22.8525V23.8542H22.6198V23.9134H22.3291V23.9726H22.0965V24.0317H21.8058V24.0909H21.5732V24.1501H21.2824V24.2092H21.0499V24.2684H20.7591V24.3277H20.5266V24.3868H20.2357V24.446H20.0031V24.5052H19.7124V24.5643H19.4798V24.6235H19.1891V24.6826H18.9565V24.7418H18.6658V24.801H18.4332V24.8601H18.1425V24.9194H17.9098V24.9786H17.6191V25.0377H17.3865V25.0969H17.0958V25.1561H16.8632V25.2152H16.5724V25.2744H16.2817V25.3336H16.0491V25.3927H15.7584V25.452H15.5257V25.5112H15.235V25.5703H15.0024V25.6295H14.7117V25.6887H14.4791V25.7478H14.1884V25.807H13.9558V25.8662H13.6651V25.9253H13.4325V25.9846H13.1416V26.0438H12.9091V26.1029H12.6183V26.1621H12.3858V26.2212H12.095V26.2804H11.8624V26.3396H11.5717V26.3987H11.3391V26.4579H11.0483V26.5172H10.8158V26.5763H10.525V26.6355H10.2924V26.6947H10.0017V26.7538H9.76909V26.813H9.47835V26.8722H9.18762V26.9313H8.95502V26.9905H8.66427V27.0497H8.43168V27.1089H8.14094V27.1681H7.90835V27.2273H7.61761V27.2864H7.38502V27.3456H7.09428V27.4048H6.86169V27.4639H6.57094V27.5231H6.33835V27.5823H6.04761V27.6415H5.81501V27.7007H5.52428V27.7598H5.29168V27.819H5.00095V27.8782H4.76835V27.9373H4.4776V27.9965H4.24501V28.0557H3.95427V28.1148H3.72168V28.174H3.43094V28.2333H3.19835V28.2924H2.9076V28.3516H2.61686V28.4108H2.38427V28.4699H2.09353V28.5291H1.86094V28.5883H1.5702V28.6474H1.33761V28.7066H1.04686V28.7659H0.81427V28.825H0.52353V28.8842" fill="url(#paint0_linear_63_997)"/>
<path d="M154.554 60.1764H154.779C154.971 60.1764 155.147 60.1662 155.147 59.942C155.147 59.7538 154.988 59.7242 154.84 59.7242H154.554V60.1764ZM154.335 59.5455H154.875C155.208 59.5455 155.364 59.6791 155.364 59.9521C155.364 60.2094 155.205 60.316 154.998 60.3384L155.396 60.9662H155.163L154.783 60.3555H154.554V60.9662H154.335V59.5455ZM154.802 61.2947C155.355 61.2947 155.782 60.8463 155.782 60.2515C155.782 59.6691 155.355 59.2212 154.802 59.2212C154.244 59.2212 153.815 59.6691 153.815 60.2515C153.815 60.8463 154.244 61.2947 154.802 61.2947ZM154.802 59.0418C155.454 59.0418 156 59.5656 156 60.2515C156 60.9503 155.454 61.4734 154.802 61.4734C154.148 61.4734 153.598 60.9503 153.598 60.2515C153.598 59.5656 154.148 59.0418 154.802 59.0418Z" fill="white"/>
</g>
<defs>
<linearGradient id="paint0_linear_63_997" x1="0.276782" y1="17.1679" x2="151.97" y2="17.1679" gradientUnits="userSpaceOnUse">
<stop stop-color="#A48749"/>
<stop offset="0.237174" stop-color="#F5CB6F"/>
<stop offset="0.422972" stop-color="#A48749"/>
<stop offset="0.627579" stop-color="#F5CB6F"/>
<stop offset="0.813924" stop-color="#A48749"/>
<stop offset="1" stop-color="#A48749"/>
</linearGradient>
</defs>
</svg>
